<svg width="482" height="126" fill="none" xmlns="http://www.w3.org/2000/svg"><path d="M0 99.0094V30.4138h19.0756v7.1097c2.1049-2.8965 4.6922-5.1348 7.7618-6.7147 3.0696-1.58 6.4901-2.3699 10.2613-2.3699 3.859 0 7.2795.9216 10.2614 2.7649 3.0696 1.8432 5.5692 4.4326 7.4987 7.768 2.5434-3.3354 5.613-5.9248 9.2089-7.768 3.6836-1.8433 7.5864-2.7649 11.7085-2.7649 6.9286 0 12.4539 2.4577 16.576 7.373 4.1221 4.8276 6.1831 11.5423 6.1831 20.1442v43.0533H78.5388V58.326c0-3.7743-.7893-6.7147-2.368-8.8213-1.5786-2.1944-3.9028-3.2915-6.9724-3.2915-3.0697 0-5.5254 1.0971-7.3672 3.2915-1.754 2.1066-2.6311 5.047-2.6311 8.8213v40.6834H39.2036V58.326c0-3.7743-.8332-6.7147-2.4995-8.8213-1.5787-2.1944-3.9028-3.2915-6.9725-3.2915-2.9819 0-5.3499 1.0971-7.104 3.2915-1.7541 2.1066-2.6311 5.047-2.6311 8.8213v40.6834H0ZM150.877 99.0094H129.96l-26.443-68.5956h22.759l14.997 45.9498 14.866-45.9498h21.312l-26.574 68.5956ZM186.414 126V30.4138h19.075v7.8997c2.28-3.1599 5.087-5.5737 8.42-7.2414 3.332-1.7555 7.148-2.6332 11.445-2.6332 5.876 0 11.051 1.536 15.524 4.6081 4.56 3.0721 8.112 7.3731 10.656 12.9028 2.631 5.4421 3.946 11.7179 3.946 18.8276 0 7.1098-1.315 13.3856-3.946 18.8276-2.544 5.442-6.096 9.6991-10.656 12.7712-4.473 3.0721-9.648 4.6078-15.524 4.6078-4.034 0-7.674-.79-10.919-2.3696-3.157-1.5799-5.876-3.8182-8.156-6.7147V126h-19.865Zm33.941-42.5266c4.385 0 7.937-1.6678 10.656-5.0032 2.807-3.3354 4.21-7.8997 4.21-13.6928s-1.403-10.3573-4.21-13.6928c-2.719-3.4232-6.271-5.1348-10.656-5.1348-4.385 0-7.981 1.7116-10.788 5.1348-2.806 3.3355-4.209 7.8997-4.209 13.6928s1.403 10.3574 4.209 13.6928c2.807 3.3354 6.403 5.0032 10.788 5.0032ZM277.606 23.6991c-3.245 0-6.051-1.1411-8.419-3.4232-2.28-2.3699-3.421-5.1787-3.421-8.4264 0-3.33539 1.141-6.14417 3.421-8.4263C271.555 1.14107 274.361 0 277.606 0c3.333 0 6.14 1.14107 8.42 3.4232 2.368 2.28213 3.552 5.09091 3.552 8.4263 0 3.2477-1.184 6.0565-3.552 8.4264-2.28 2.2821-5.087 3.4232-8.42 3.4232ZM256.294 126v-17.116h3.947c2.456 0 4.298-.79 5.525-2.37 1.228-1.492 1.842-3.599 1.842-6.32V30.4138h19.997v72.1502c0 7.461-1.93 13.21-5.789 17.248-3.859 4.125-9.34 6.188-16.444 6.188h-9.078ZM423.721 126l11.182-26.9906-26.837-68.5956h22.759l14.997 45.0282 14.866-45.0282H482L445.033 126h-21.312Z" fill="#fff"/><path d="M269.187 20.2759c2.368 2.2821 5.174 3.4232 8.419 3.4232 3.333 0 6.14-1.1411 8.42-3.4232 2.368-2.3699 3.552-5.1787 3.552-8.4264 0-3.33539-1.184-6.14417-3.552-8.4263C283.746 1.14107 280.939 0 277.606 0c-3.245 0-6.051 1.14107-8.419 3.4232-2.28 2.28213-3.421 5.09091-3.421 8.4263 0 3.2477 1.141 6.0565 3.421 8.4264ZM316.458 61.5922l-18.586-5.1448c-.615 2.58-.941 5.2725-.941 8.041 0 19.0654 15.443 34.521 34.493 34.521h41.713c19.05 0 34.494-15.4556 34.494-34.521 0-3.1334-.418-6.1694-1.199-9.0552l-18.506 5.3504c.295 1.1861.452 2.4271.452 3.7048 0 8.4243-6.823 15.2535-15.241 15.2535h-41.713c-8.417 0-15.241-6.8292-15.241-15.2535 0-.9902.094-1.9585.275-2.8962ZM327.625 42.2152c2.368 2.2821 5.175 3.4232 8.42 3.4232 3.333 0 6.139-1.1411 8.419-3.4232 2.368-2.3699 3.552-5.1787 3.552-8.4264 0-3.3354-1.184-6.1442-3.552-8.4263-2.28-2.2821-5.086-3.4232-8.419-3.4232-3.245 0-6.052 1.1411-8.42 3.4232-2.28 2.2821-3.42 5.0909-3.42 8.4263 0 3.2477 1.14 6.0565 3.42 8.4264ZM361.316 42.2152c2.368 2.2821 5.175 3.4232 8.42 3.4232 3.333 0 6.139-1.1411 8.42-3.4232 2.368-2.3699 3.552-5.1787 3.552-8.4264 0-3.3354-1.184-6.1442-3.552-8.4263-2.281-2.2821-5.087-3.4232-8.42-3.4232-3.245 0-6.052 1.1411-8.42 3.4232-2.28 2.2821-3.42 5.0909-3.42 8.4263 0 3.2477 1.14 6.0565 3.42 8.4264Z" fill="#fff"/></svg>