<svg width="660" height="174" viewBox="0 0 660 174" fill="none" xmlns="http://www.w3.org/2000/svg">
<path d="M561.881 43.3279L606.835 111.032L651.425 43.3279H659.433L610.111 118.13V170H603.377V118.13L553.873 43.3279H561.881Z" fill="white"/>
<path d="M442.811 92.6501C442.811 83.1861 445.177 74.3894 449.909 66.2601C454.641 58.1308 461.011 51.7001 469.019 46.9681C477.148 42.2361 486.005 39.8701 495.591 39.8701C505.176 39.8701 513.973 42.2361 521.981 46.9681C530.11 51.7001 536.541 58.1308 541.273 66.2601C546.005 74.3894 548.371 83.1861 548.371 92.6501V120.678C548.371 130.142 546.005 138.939 541.273 147.068C536.541 155.197 530.11 161.628 521.981 166.36C513.973 171.092 505.176 173.458 495.591 173.458C486.005 173.458 477.148 171.092 469.019 166.36C461.011 161.628 454.641 155.197 449.909 147.068C445.177 138.939 442.811 130.142 442.811 120.678V92.6501ZM475.935 120.678C475.935 126.502 477.755 131.477 481.395 135.602C485.035 139.727 489.767 141.79 495.591 141.79C501.293 141.79 505.965 139.727 509.605 135.602C513.245 131.477 515.065 126.502 515.065 120.678V92.4681C515.065 86.5228 513.245 81.5481 509.605 77.5441C505.965 73.5401 501.293 71.5381 495.591 71.5381C489.767 71.5381 485.035 73.5401 481.395 77.5441C477.755 81.5481 475.935 86.5228 475.935 92.4681V120.678ZM475.207 0.558105C479.332 0.558105 482.851 2.0141 485.763 4.9261C488.675 7.83811 490.131 11.3568 490.131 15.4821C490.131 19.6074 488.675 23.1261 485.763 26.0381C482.851 28.8288 479.332 30.2241 475.207 30.2241C471.081 30.2241 467.563 28.8288 464.651 26.0381C461.86 23.1261 460.465 19.6074 460.465 15.4821C460.465 11.3568 461.86 7.83811 464.651 4.9261C467.563 2.0141 471.081 0.558105 475.207 0.558105ZM515.611 30.2241C511.485 30.2241 507.967 28.8288 505.055 26.0381C502.264 23.1261 500.869 19.6074 500.869 15.4821C500.869 11.3568 502.264 7.83811 505.055 4.9261C507.967 2.0141 511.485 0.558105 515.611 0.558105C519.736 0.558105 523.255 2.0141 526.167 4.9261C529.079 7.83811 530.535 11.3568 530.535 15.4821C530.535 19.6074 529.079 23.1261 526.167 26.0381C523.255 28.8288 519.736 30.2241 515.611 30.2241ZM475.207 24.0361C477.633 24.0361 479.635 23.1868 481.213 21.4881C482.911 19.7894 483.761 17.7874 483.761 15.4821C483.761 13.0554 482.911 10.9928 481.213 9.29411C479.635 7.59545 477.633 6.74611 475.207 6.74611C472.78 6.74611 470.717 7.59545 469.019 9.29411C467.441 10.9928 466.653 13.0554 466.653 15.4821C466.653 17.7874 467.502 19.7894 469.201 21.4881C470.899 23.1868 472.901 24.0361 475.207 24.0361ZM515.611 6.74611C513.184 6.74611 511.121 7.59545 509.423 9.29411C507.845 10.9928 507.057 13.0554 507.057 15.4821C507.057 17.7874 507.906 19.7894 509.605 21.4881C511.303 23.1868 513.305 24.0361 515.611 24.0361C518.037 24.0361 520.039 23.1868 521.617 21.4881C523.315 19.7894 524.165 17.7874 524.165 15.4821C524.165 13.0554 523.315 10.9928 521.617 9.29411C520.039 7.59545 518.037 6.74611 515.611 6.74611Z" fill="white"/>
<path d="M382.344 172.73C373.729 172.73 365.721 170.789 358.32 166.906C350.919 162.902 344.852 157.442 340.12 150.526C335.388 143.61 332.597 135.966 331.748 127.594H338.482C339.331 134.753 341.819 141.305 345.944 147.25C350.069 153.074 355.287 157.685 361.596 161.082C368.027 164.358 374.943 165.996 382.344 165.996C390.473 165.996 397.935 163.994 404.73 159.99C411.525 155.986 416.924 150.465 420.928 143.428C424.932 136.391 426.934 128.504 426.934 119.768V50.0619H370.15V43.3279H433.486V119.768C433.486 129.717 431.181 138.757 426.57 146.886C422.081 154.894 415.893 161.203 408.006 165.814C400.241 170.425 391.687 172.73 382.344 172.73Z" fill="white"/>
<path d="M238.157 170H231.423V43.3279H282.383C290.877 43.3279 298.703 45.1479 305.861 48.7879C313.141 52.4279 318.905 57.5846 323.151 64.2579C327.398 70.9312 329.521 78.6359 329.521 87.3719C329.521 95.7439 327.337 103.449 322.969 110.486C318.723 117.523 312.899 122.923 305.497 126.684C299.067 129.96 291.362 131.598 282.383 131.598H238.157V170ZM238.157 124.864H282.383C290.149 124.864 296.519 123.651 301.493 121.224C307.924 118.191 313.081 113.641 316.963 107.574C320.846 101.507 322.787 94.7732 322.787 87.3719C322.787 80.0919 320.846 73.4186 316.963 67.3519C313.081 61.2852 307.863 56.7352 301.311 53.7019C296.337 51.2752 290.027 50.0619 282.383 50.0619H238.157V124.864Z" fill="white"/>
<path d="M102.707 43.146H222.099L162.403 172.548L102.707 43.146ZM162.403 156.532L211.725 49.88H113.263L162.403 156.532Z" fill="white"/>
<path d="M0.198242 43.146H7.47824L51.7042 121.406L95.7482 43.146H102.482V169.818H0.198242V43.146ZM6.93224 163.266H95.7482V56.796L54.7982 128.868H48.4282L6.93224 55.704V163.266Z" fill="white"/>
</svg>
