<svg width="1987" height="397" fill="none" xmlns="http://www.w3.org/2000/svg"><path d="M24.3328 124c0-68.4832 55.5167-124 124.0002-124h147.961c68.483 0 124 55.5167 124 124v147.961c0 68.484-55.517 124-124 124H148.333c-68.4834 0-124.0002-55.516-124.0002-124V124Z" fill="#2773F0"/><mask id="a" style="mask-type:alpha" maskUnits="userSpaceOnUse" x="24" y="0" width="397" height="396"><rect x="24.3328" width="395.961" height="395.961" rx="124" fill="#2773F0"/></mask><g mask="url(#a)" fill="#FDC803"><path d="m43.6855-35.3932 409.51169994 409.51169994-54.74604548 54.74604547L-11.06054548 19.35284548z"/><path d="M-11.0605 374.119 398.45119994-35.39269994l54.74604547 54.74604548L43.68554548 428.86504548z"/></g><circle cx="222.313" cy="197.981" r="142.679" fill="#2773F0"/><g filter="url(#b)"><path d="M106.18 201.109c0-33.539 11.707-62.169 35.123-85.891 23.517-23.7223 51.79-35.5834 84.817-35.5834 24.335 0 46.677 7.1065 67.025 21.3194 20.45 14.213 35.174 33.078 44.173 56.596l-47.087 17.178c-6.442-14.826-15.184-26.33-26.227-34.51-10.941-8.18-23.467-12.27-37.577-12.27-19.939 0-36.453 6.902-49.541 20.706-12.986 13.804-19.479 31.289-19.479 52.455 0 19.223 6.595 35.481 19.786 48.773 13.19 13.191 29.601 19.786 49.234 19.786 16.155 0 30.01-4.192 41.564-12.577 11.657-8.385 19.173-19.683 22.547-33.896l47.393 18.098c-5.828 21.575-19.734 40.031-41.718 55.369-21.984 15.235-45.349 22.853-70.093 22.853-33.334 0-61.658-11.503-84.971-34.51-23.313-23.006-34.969-50.972-34.969-83.896Z" fill="#fff"/></g><path d="M77.841 131.809c-33.5494 58.922-21.3721 113.72-33.0504 107.07-11.6783-6.649-19.3017-70.268 14.2478-129.19C92.5878 50.7663 154.606 18.8537 166.284 25.5031c11.678 6.6495-54.893 47.3839-88.443 106.3059Z" fill="#fff" fill-opacity=".15" style="mix-blend-mode:overlay"/><path d="M363.671 265.375c33.902-58.72 22.054-113.589 33.692-106.87 11.638 6.72 18.88 70.383-15.022 129.103-33.902 58.72-96.11 90.261-107.748 83.541-11.638-6.719 55.176-47.054 89.078-105.774Z" fill="#000" fill-opacity=".15" style="mix-blend-mode:overlay"/><circle cx="178.072" cy="23.2268" r="5.53019" fill="#fff" fill-opacity=".15" style="mix-blend-mode:overlay"/><path d="M502.893 199.523c0-34.38 12.001-63.729 36.004-88.046C563.006 87.1589 591.988 75 625.844 75c24.946 0 47.849 7.2848 68.708 21.8545 20.963 14.5695 36.057 33.9085 45.281 58.0165l-48.269 17.609c-6.603-15.198-15.565-26.99-26.885-35.376-11.216-8.385-24.056-12.578-38.521-12.578-20.439 0-37.367 7.076-50.784 21.226-13.312 14.15-19.968 32.074-19.968 53.771 0 19.706 6.761 36.372 20.282 49.998 13.522 13.522 30.345 20.283 50.47 20.283 16.561 0 30.764-4.298 42.609-12.893 11.949-8.595 19.653-20.177 23.112-34.747l48.583 18.553c-5.975 22.116-20.23 41.036-42.766 56.759-22.536 15.617-46.486 23.426-71.852 23.426-34.171 0-63.205-11.792-87.104-35.376-23.898-23.584-35.847-52.251-35.847-86.003ZM759.801 232.384c0-24.213 8.49-44.81 25.47-61.79 16.981-16.981 37.787-25.471 62.419-25.471 24.423 0 45.124 8.49 62.105 25.471 16.98 16.98 25.471 37.577 25.471 61.79 0 24.737-8.543 45.805-25.628 63.205-17.086 17.4-37.735 26.099-61.948 26.099-24.212 0-44.914-8.699-62.104-26.099-17.19-17.4-25.785-38.468-25.785-63.205Zm48.897.314c0 12.264 3.774 22.484 11.321 30.659 7.546 8.176 16.875 12.264 27.986 12.264 11.425 0 20.754-4.035 27.986-12.106 7.337-8.071 11.006-18.343 11.006-30.817 0-11.844-3.826-21.802-11.477-29.873-7.652-8.176-16.824-12.263-27.515-12.263-10.901 0-20.178 4.087-27.829 12.263-7.652 8.071-11.478 18.029-11.478 29.873ZM965.768 316.186V150.94h47.642v16.509c10.06-12.054 22.53-19.077 37.42-21.068 14.78-1.677 27.93.157 39.46 5.503 11.64 5.345 20.13 13.626 25.47 24.842 4.93 10.062 7.39 27.567 7.39 52.513v86.947h-49.84v-88.991c0-13.731-2.1-23.164-6.29-28.3-4.19-5.137-11.84-7.705-22.95-7.705-7.97 0-14.73 4.036-20.29 12.107-5.45 8.071-8.17 18.081-8.17 30.03v82.859h-49.842ZM1253.81 316.186h-46.7l-70.59-165.56 55.5-.314 38.52 102.04 39.3-102.04 54.4.314-70.43 165.56ZM1333.36 232.698c0-25.995 8.07-46.958 24.22-62.89 16.24-16.037 37.47-24.056 63.67-24.056 27.67 0 48.95 9.119 63.84 27.357 14.99 18.239 21.07 42.923 18.24 74.054l-119.5 1.415c1.05 7.337 4.93 13.784 11.64 19.339 6.71 5.555 14.57 8.543 23.58 8.962 16.98 1.258 29.19-6.027 36.64-21.855l45.43 14.151c-4.08 12.263-13.1 23.636-27.04 34.118-13.94 10.482-31.34 15.723-52.2 15.723-25.57 0-46.75-8.124-63.52-24.37-16.66-16.352-25-37.001-25-61.948Zm119.18-22.798c-1.05-7.127-5.19-12.997-12.42-17.609-7.23-4.612-15.57-6.603-25-5.975-7.34.42-13.89 2.883-19.65 7.39-5.77 4.507-9.49 10.01-11.17 16.509l68.24-.315ZM1534.61 315.557V151.569h48.27v14.151c5.35-7.128 13.52-12.578 24.53-16.352 6.92-2.62 15.15-3.406 24.68-2.358 9.54.943 16.98 3.354 22.33 7.232l-13.52 44.338c-7.76-4.717-16.09-6.551-25-5.503-8.91.944-15.83 4.193-20.75 9.748-5.14 5.765-8.49 12.369-10.07 19.811-1.46 7.337-2.2 21.225-2.2 41.665v51.57l-48.27-.314ZM1778.31 265.873l14.15 44.181c-1.04.419-3.61 1.415-7.7 2.987-4.09 1.677-7.18 2.778-9.28 3.302-1.99.524-4.97 1.205-8.96 2.044-3.98.838-8.12 1.153-12.42.943-4.3-.21-9.01-.838-14.15-1.887-12.47-2.62-22.64-8.804-30.5-18.552-7.76-9.748-11.64-21.174-11.64-34.276v-70.437h-27.67v-43.552h20.6c3.67 0 6.08-.472 7.23-1.415 1.15-.943 1.73-2.935 1.73-5.975v-40.25h47.33v47.64h37.73v43.552h-38.05v43.709c0 10.901.26 18.028.79 21.383.63 3.354 1.88 6.079 3.77 8.175 2.62 3.25 6.81 4.77 12.58 4.56 5.76-.21 10.59-2.254 14.46-6.132ZM1897.81 270.433l-27.36 45.753h-58.65l57.39-83.173-57.39-82.387h58.33l28.62 42.766 27.36-42.766 58.33.314-57.39 81.129 58.96 84.117h-58.33l-29.87-45.753Z" fill="#1C2739"/><defs><filter id="b" x="104.18" y="79.6346" width="235.752" height="243.88" filterUnits="userSpaceOnUse" color-interpolation-filters="sRGB"><feFlood flood-opacity="0" result="BackgroundImageFix"/><feColorMatrix in="SourceAlpha" values="0 0 0 0 0 0 0 0 0 0 0 0 0 0 0 0 0 0 127 0" result="hardAlpha"/><feOffset dy="2"/><feGaussianBlur stdDeviation="1"/><feComposite in2="hardAlpha" operator="out"/><feColorMatrix values="0 0 0 0 0 0 0 0 0 0 0 0 0 0 0 0 0 0 0.1 0"/><feBlend in2="BackgroundImageFix" result="effect1_dropShadow_11_33"/><feBlend in="SourceGraphic" in2="effect1_dropShadow_11_33" result="shape"/></filter></defs></svg>