<svg width="315" height="41" viewBox="0 0 315 41" fill="none" xmlns="http://www.w3.org/2000/svg">
<path d="M31.5 11C21 0.0480347 10.5 0.0480347 0 11V41H315V11C302.39 19.0058 291.89 19.0058 283.5 11C273 -2.38573 262.5 -2.38573 252 11C241.041 24.3857 230.541 24.3857 220.5 11C210 -3.66667 199.5 -3.66667 189 11C179.115 25.6667 168.615 25.6667 157.5 11C147 -2.12955 136.5 -2.12955 126 11C115.475 24.1295 104.975 24.1295 94.5 11C84 -2.1936 73.5 -2.1936 63 11C53.5746 24.1936 43.0746 24.1936 31.5 11Z" fill="#fff"/>
</svg>
