<svg width="511" height="177" viewBox="0 0 511 177" fill="none" xmlns="http://www.w3.org/2000/svg">
<path d="M237.348 96.3399C237.807 88.1046 242.856 81.6993 251.424 81.6993C261.216 81.6993 265.347 88.2571 265.347 96.6449V140.414H277.695C282.114 140.414 285.695 136.832 285.695 132.414V93.1373C285.695 76.6667 276.821 63.3987 257.697 63.3987C250.506 63.3987 243 63.3987 237.348 67V30H225C220.582 30 217 33.5817 217 38V132.414C217 136.832 220.582 140.414 225 140.414H237.348V96.3399Z" fill="black"/>
<path d="M308.948 94.3573C309.407 87.4946 315.221 79.5643 325.778 79.5643C337.406 79.5643 342.301 86.8845 342.607 94.3573H308.948ZM344.596 113.878C342.148 120.588 336.947 125.316 327.461 125.316C317.363 125.316 308.948 118.148 308.489 108.235H362.344C362.344 107.93 362.65 104.88 362.65 101.983C362.65 77.8867 348.727 63.0937 325.472 63.0937C306.194 63.0937 288.447 78.6492 288.447 102.593C288.447 127.909 306.653 142.702 327.308 142.702C345.82 142.702 357.754 131.874 361.579 118.911L344.596 113.878Z" fill="black"/>
<path d="M381.275 94.3573C381.734 87.4946 387.548 79.5643 398.104 79.5643C409.732 79.5643 414.628 86.8845 414.934 94.3573H381.275ZM416.923 113.878C414.475 120.588 409.273 125.316 399.787 125.316C389.69 125.316 381.275 118.148 380.816 108.235H434.67C434.67 107.93 434.976 104.88 434.976 101.983C434.976 77.8867 421.054 63.0937 397.798 63.0937C378.521 63.0937 360.773 78.6492 360.773 102.593C360.773 127.909 378.98 142.702 399.634 142.702C418.147 142.702 430.081 131.874 433.906 118.911L416.923 113.878Z" fill="black"/>
<path d="M463.724 170L511 65.3813H489.275L470.762 109.303L450.72 65.3813H427.923L459.899 130.959L442.152 170H463.724Z" fill="black"/>
<rect width="177" height="177" rx="40" fill="#F4BBE7"/>
<g style="mix-blend-mode:multiply">
<mask id="path-3-inside-1_303_75" fill="white">
<path fill-rule="evenodd" clip-rule="evenodd" d="M52.25 25.2858C47.8317 25.2858 44.25 28.8675 44.25 33.2858V127.279C44.25 131.697 47.8317 135.279 52.25 135.279H68.0818V135.279H68.1171V91.2103C68.5882 84.268 73.4558 79.1367 80.9928 79.1367C89.6289 79.1367 93.7115 84.7207 93.7115 92.1158V135.279H109.579C113.997 135.279 117.579 131.697 117.579 127.279V88.1919C117.579 71.7417 108.471 58.3099 88.0587 58.3099C87.3062 58.3099 86.532 58.3037 85.7356 58.2973C80.7764 58.2575 74.9527 58.2107 68.0818 59.6134V33.2858C68.0818 28.8675 64.5001 25.2858 60.0818 25.2858H52.25Z"/>
</mask>
<path fill-rule="evenodd" clip-rule="evenodd" d="M52.25 25.2858C47.8317 25.2858 44.25 28.8675 44.25 33.2858V127.279C44.25 131.697 47.8317 135.279 52.25 135.279H68.0818V135.279H68.1171V91.2103C68.5882 84.268 73.4558 79.1367 80.9928 79.1367C89.6289 79.1367 93.7115 84.7207 93.7115 92.1158V135.279H109.579C113.997 135.279 117.579 131.697 117.579 127.279V88.1919C117.579 71.7417 108.471 58.3099 88.0587 58.3099C87.3062 58.3099 86.532 58.3037 85.7356 58.2973C80.7764 58.2575 74.9527 58.2107 68.0818 59.6134V33.2858C68.0818 28.8675 64.5001 25.2858 60.0818 25.2858H52.25Z" fill="black"/>
<path d="M68.0818 135.279V136.279H69.0818V135.279H68.0818ZM68.0818 135.279V134.279H67.0818V135.279H68.0818ZM68.1171 135.279V136.279H69.1171V135.279H68.1171ZM68.1171 91.2103L67.1194 91.1426L67.1171 91.1764V91.2103H68.1171ZM93.7115 135.279H92.7115V136.279H93.7115V135.279ZM88.0587 58.3099L88.0587 59.3099H88.0587V58.3099ZM85.7356 58.2973L85.7276 59.2973L85.7276 59.2973L85.7356 58.2973ZM68.0818 59.6134H67.0818V60.8382L68.2818 60.5932L68.0818 59.6134ZM45.25 33.2858C45.25 29.4198 48.384 26.2858 52.25 26.2858V24.2858C47.2794 24.2858 43.25 28.3152 43.25 33.2858H45.25ZM45.25 127.279V33.2858H43.25V127.279H45.25ZM52.25 134.279C48.384 134.279 45.25 131.145 45.25 127.279H43.25C43.25 132.249 47.2794 136.279 52.25 136.279V134.279ZM68.0818 134.279H52.25V136.279H68.0818V134.279ZM67.0818 135.279V135.279H69.0818V135.279H67.0818ZM68.0818 136.279H68.1171V134.279H68.0818V136.279ZM69.1171 135.279V91.2103H67.1171V135.279H69.1171ZM69.1148 91.2779C69.3357 88.0237 70.5811 85.247 72.6014 83.288C74.6167 81.3339 77.461 80.1367 80.9928 80.1367V78.1367C76.9876 78.1367 73.6296 79.5052 71.2091 81.8522C68.7936 84.1945 67.3697 87.4545 67.1194 91.1426L69.1148 91.2779ZM80.9928 80.1367C85.0846 80.1367 87.9734 81.4516 89.8493 83.5241C91.7398 85.6129 92.7115 88.5933 92.7115 92.1158H94.7115C94.7115 88.2432 93.6419 84.734 91.3321 82.1821C89.0077 79.6139 85.5372 78.1367 80.9928 78.1367V80.1367ZM92.7115 92.1158V135.279H94.7115V92.1158H92.7115ZM93.7115 136.279H109.579V134.279H93.7115V136.279ZM109.579 136.279C114.549 136.279 118.579 132.249 118.579 127.279H116.579C116.579 131.145 113.445 134.279 109.579 134.279V136.279ZM118.579 127.279V88.1919H116.579V127.279H118.579ZM118.579 88.1919C118.579 79.7924 116.253 72.0608 111.22 66.4165C106.169 60.7532 98.4976 57.3099 88.0587 57.3099V59.3099C98.0325 59.3099 105.121 62.5825 109.727 67.7476C114.35 72.9318 116.579 80.1412 116.579 88.1919H118.579ZM88.0587 57.3099C87.3109 57.3099 86.5408 57.3037 85.7436 57.2973L85.7276 59.2973C86.5232 59.3036 87.3014 59.3099 88.0587 59.3099L88.0587 57.3099ZM85.7436 57.2973C80.7834 57.2575 74.8658 57.2078 67.8818 58.6336L68.2818 60.5932C75.0396 59.2136 80.7695 59.2574 85.7276 59.2973L85.7436 57.2973ZM67.0818 33.2858V59.6134H69.0818V33.2858H67.0818ZM60.0818 26.2858C63.9478 26.2858 67.0818 29.4198 67.0818 33.2858H69.0818C69.0818 28.3152 65.0524 24.2858 60.0818 24.2858V26.2858ZM52.25 26.2858H60.0818V24.2858H52.25V26.2858Z" fill="black" mask="url(#path-3-inside-1_303_75)"/>
</g>
<mask id="path-5-inside-2_303_75" fill="white">
<path fill-rule="evenodd" clip-rule="evenodd" d="M59.8357 32.8715C55.4174 32.8715 51.8357 36.4532 51.8357 40.8715V134.864C51.8357 139.283 55.4174 142.864 59.8357 142.864H75.6675L75.7028 142.864V98.796C76.1739 91.8537 81.0415 86.7224 88.5785 86.7224C97.2147 86.7224 101.297 92.3064 101.297 99.7015V142.864H117.164C121.583 142.864 125.164 139.283 125.164 134.864V95.7776C125.164 79.3274 116.057 65.8956 95.6444 65.8956C94.8919 65.8956 94.1177 65.8894 93.3213 65.883C88.3621 65.8432 82.5384 65.7964 75.6675 67.1992V40.8715C75.6675 36.4532 72.0858 32.8715 67.6675 32.8715H59.8357Z"/>
</mask>
<path fill-rule="evenodd" clip-rule="evenodd" d="M59.8357 32.8715C55.4174 32.8715 51.8357 36.4532 51.8357 40.8715V134.864C51.8357 139.283 55.4174 142.864 59.8357 142.864H75.6675L75.7028 142.864V98.796C76.1739 91.8537 81.0415 86.7224 88.5785 86.7224C97.2147 86.7224 101.297 92.3064 101.297 99.7015V142.864H117.164C121.583 142.864 125.164 139.283 125.164 134.864V95.7776C125.164 79.3274 116.057 65.8956 95.6444 65.8956C94.8919 65.8956 94.1177 65.8894 93.3213 65.883C88.3621 65.8432 82.5384 65.7964 75.6675 67.1992V40.8715C75.6675 36.4532 72.0858 32.8715 67.6675 32.8715H59.8357Z" fill="url(#paint0_linear_303_75)"/>
<path d="M75.6675 142.864L75.6675 144.364L75.6697 144.364L75.6675 142.864ZM75.7028 142.864L75.7051 144.364L77.2028 144.362V142.864H75.7028ZM75.7028 98.796L74.2063 98.6944L74.2028 98.7451V98.796H75.7028ZM101.297 142.864H99.7972V144.364H101.297V142.864ZM95.6444 65.8956L95.6444 67.3956H95.6444V65.8956ZM93.3213 65.883L93.3093 67.383L93.3093 67.383L93.3213 65.883ZM75.6675 67.1992H74.1675V69.0363L75.9675 68.6688L75.6675 67.1992ZM53.3357 40.8715C53.3357 37.2816 56.2458 34.3715 59.8357 34.3715V31.3715C54.589 31.3715 50.3357 35.6248 50.3357 40.8715H53.3357ZM53.3357 134.864V40.8715H50.3357V134.864H53.3357ZM59.8357 141.364C56.2458 141.364 53.3357 138.454 53.3357 134.864H50.3357C50.3357 140.111 54.589 144.364 59.8357 144.364V141.364ZM75.6675 141.364H59.8357V144.364H75.6675V141.364ZM75.6697 144.364L75.7051 144.364L75.7006 141.364L75.6652 141.364L75.6697 144.364ZM77.2028 142.864V98.796H74.2028V142.864H77.2028ZM77.1994 98.8975C77.4129 95.7517 78.6137 93.0958 80.5352 91.2327C82.4492 89.3768 85.1651 88.2224 88.5785 88.2224V85.2224C84.455 85.2224 80.9686 86.6337 78.4468 89.079C75.9324 91.517 74.4639 94.8979 74.2063 98.6944L77.1994 98.8975ZM88.5785 88.2224C92.5571 88.2224 95.3005 89.4967 97.0643 91.4454C98.85 93.4184 99.7972 96.2666 99.7972 99.7015H102.797C102.797 95.7413 101.703 92.1 99.2885 89.4322C96.852 86.7402 93.2361 85.2224 88.5785 85.2224V88.2224ZM99.7972 99.7015V142.864H102.797V99.7015H99.7972ZM101.297 144.364H117.164V141.364H101.297V144.364ZM117.164 144.364C122.411 144.364 126.664 140.111 126.664 134.864H123.664C123.664 138.454 120.754 141.364 117.164 141.364V144.364ZM126.664 134.864V95.7776H123.664V134.864H126.664ZM126.664 95.7776C126.664 87.2909 124.315 79.4288 119.179 73.6694C114.017 67.8816 106.2 64.3956 95.6444 64.3956V67.3956C105.502 67.3956 112.444 70.6255 116.94 75.6662C121.46 80.7352 123.664 87.8141 123.664 95.7776H126.664ZM95.6445 64.3956C94.8989 64.3956 94.131 64.3895 93.3334 64.3831L93.3093 67.383C94.1045 67.3893 94.8848 67.3956 95.6444 67.3956L95.6445 64.3956ZM93.3334 64.3831C88.3726 64.3432 82.408 64.2921 75.3674 65.7295L75.9675 68.6688C82.6688 67.3008 88.3517 67.3432 93.3093 67.383L93.3334 64.3831ZM74.1675 40.8715V67.1992H77.1675V40.8715H74.1675ZM67.6675 34.3715C71.2573 34.3715 74.1675 37.2816 74.1675 40.8715H77.1675C77.1675 35.6248 72.9142 31.3715 67.6675 31.3715V34.3715ZM59.8357 34.3715H67.6675V31.3715H59.8357V34.3715Z" fill="black" mask="url(#path-5-inside-2_303_75)"/>
<path d="M125.164 50.3149L126.861 49.7241C134.564 47.0413 140.453 40.7387 142.608 32.8714V32.8714V32.8714C144.389 40.6761 150.109 46.9884 157.701 49.5284L160.051 50.3149V50.3149C151.31 51.6912 144.378 58.4125 142.731 67.1067L142.608 67.7585L141.876 64.0515C140.301 56.069 133.301 50.3149 125.164 50.3149V50.3149Z" fill="white"/>
<path d="M15.8203 113.141L16.4462 112.015C19.2886 106.899 19.4306 100.711 16.826 95.4701V95.4701V95.4701C21.508 98.7974 27.5855 99.4445 32.8632 97.1777L34.4974 96.4758V96.4758C30.4753 101.388 29.9745 108.298 33.2464 113.739L33.4917 114.147L31.3292 112.512C26.6727 108.991 20.1762 109.255 15.8203 113.141V113.141Z" fill="white"/>
<path d="M139.072 123.644L139.941 123.341C143.889 121.966 146.907 118.736 148.011 114.704V114.704V114.704C148.924 118.704 151.856 121.939 155.746 123.24L156.951 123.644V123.644C152.471 124.349 148.918 127.794 148.075 132.249L148.011 132.583L147.636 130.684C146.829 126.593 143.241 123.644 139.072 123.644V123.644Z" fill="white"/>
<defs>
<linearGradient id="paint0_linear_303_75" x1="51.8357" y1="25.2857" x2="120.107" y2="141.6" gradientUnits="userSpaceOnUse">
<stop stop-color="#94E9EB"/>
<stop offset="0.578125" stop-color="#EBE395"/>
<stop offset="1" stop-color="#A177EB"/>
</linearGradient>
</defs>
</svg>
