<svg width="314" height="160" fill="none" xmlns="http://www.w3.org/2000/svg"><path d="M287 68c-1.657 0-3 1.3431-3 3s1.343 3 3 3v-6ZM27 93c0-1.6569-1.3431-3-3-3s-3 1.3431-3 3h6Zm281-8v58h6V85h-6Zm-11 69H38v6h259v-6Zm-10-80h10v-6h-10v6ZM27 143V93h-6v50h6Zm11 11c-6.0751 0-11-4.925-11-11h-6c0 9.389 7.6112 17 17 17v-6Zm270-11c0 6.075-4.925 11-11 11v6c9.389 0 17-7.611 17-17h-6Zm6-58c0-9.3888-7.611-17-17-17v6c6.075 0 11 4.9249 11 11h6ZM72.3105 90.8177l-2.0283 9.2333c-1.332-.2421-2.442-.3329-3.3301-.2724-.888.0606-1.5439.2624-1.9677.6054-.4037.343-.7064.787-.9082 1.332-.2019.545-.2927 1.151-.2725 1.817.0202.645.0303 1.321.0303 2.028h6.8115l.0606 8.355h-6.9327v23.583l-9.748.061v-23.644h-4.9649L49 105.561h2.9365c.8275 0 1.3623-.121 1.6045-.363.2422-.263.3633-.828.3633-1.696 0-3.189.5853-5.56 1.7559-7.114 1.5338-2.7246 3.8548-4.6016 6.9628-5.6309 3.1081-1.0293 6.3373-1.0091 9.6875.0606ZM73.915 121.424c0-4.662 1.6348-8.628 4.9043-11.897 3.2696-3.27 7.2758-4.905 12.0186-4.905 4.7025 0 8.6885 1.635 11.9581 4.905 3.269 3.269 4.904 7.235 4.904 11.897 0 4.763-1.645 8.82-4.934 12.17-3.2901 3.35-7.266 5.025-11.9281 5.025-4.6621 0-8.6481-1.675-11.958-5.025-3.3099-3.35-4.9649-7.407-4.9649-12.17Zm9.4151.061c0 2.361.7265 4.329 2.1797 5.903 1.4531 1.574 3.2493 2.361 5.3886 2.361 2.1999 0 3.9961-.777 5.3887-2.331 1.4128-1.554 2.1191-3.532 2.1191-5.933 0-2.281-.7366-4.198-2.2099-5.752-1.4733-1.575-3.2393-2.362-5.2979-2.362-2.0989 0-3.8851.787-5.3584 2.362-1.4733 1.554-2.2099 3.471-2.2099 5.752ZM134.704 137.56l-.242-2.543c-.949.989-2.261 1.796-3.936 2.422-1.675.646-3.421.969-5.237.969-2.018 0-3.794-.374-5.328-1.121-1.534-.726-2.694-1.604-3.482-2.633-.787-1.05-1.422-2.241-1.907-3.573-.464-1.352-.757-2.472-.878-3.36-.121-.888-.181-1.705-.181-2.452v-19.648h9.99v18.861c0 1.534.454 2.775 1.362 3.723.908.949 2.079 1.423 3.512 1.423 1.574 0 2.916-.464 4.026-1.392 1.131-.949 1.696-2.079 1.696-3.391v-19.284h9.929v31.999h-9.324ZM150.749 137.56v-31.818h9.173v3.179c1.937-2.321 4.339-3.673 7.205-4.056 2.846-.323 5.379.03 7.599 1.059 2.24 1.029 3.875 2.624 4.904 4.783.948 1.938 1.423 5.308 1.423 10.112v16.741h-9.597v-17.135c0-2.644-.404-4.46-1.211-5.449-.807-.989-2.28-1.484-4.42-1.484-1.534 0-2.835.777-3.905 2.332-1.05 1.554-1.574 3.481-1.574 5.782v15.954h-9.597ZM210.024 91.1204l9.355-.0605.121 46.5001-8.931-.061-.242-2.3c-2.058 2.24-4.955 3.35-8.688 3.33-1.776 0-3.563-.414-5.359-1.242-1.796-.807-3.451-1.957-4.965-3.451-1.493-1.493-2.664-3.461-3.511-5.903-.848-2.442-1.171-5.086-.969-7.932.283-4.218 1.655-7.679 4.117-10.384 2.462-2.704 5.611-4.288 9.445-4.752 3.674-.465 6.903.403 9.688 2.603l-.061-16.3476Zm.182 30.4246c0-2.442-.636-4.389-1.907-5.843-1.251-1.473-2.947-2.23-5.086-2.27-1.978-.04-3.653.737-5.025 2.331-1.373 1.594-2.059 3.552-2.059 5.873 0 2.301.706 4.228 2.119 5.782 1.433 1.554 3.169 2.291 5.207 2.21 2.099-.081 3.744-.847 4.935-2.301 1.211-1.453 1.816-3.38 1.816-5.782ZM225.403 121.485c0-5.006 1.554-9.042 4.662-12.11 3.129-3.088 7.216-4.632 12.261-4.632 5.328 0 9.425 1.756 12.291 5.268 2.886 3.512 4.057 8.265 3.512 14.259l-23.008.272c.202 1.413.949 2.654 2.24 3.724 1.292 1.07 2.806 1.645 4.541 1.726 3.27.242 5.621-1.161 7.054-4.209l8.749 2.725c-.787 2.361-2.523 4.551-5.207 6.569-2.684 2.019-6.034 3.028-10.051 3.028-4.924 0-9.001-1.564-12.23-4.693-3.209-3.148-4.814-7.124-4.814-11.927Zm22.948-4.39c-.202-1.372-.999-2.503-2.392-3.391-1.393-.888-2.997-1.271-4.813-1.15-1.413.081-2.675.555-3.785 1.423-1.11.868-1.826 1.927-2.149 3.179l13.139-.061ZM264.153 137.439v-31.575h9.294v2.724c1.03-1.372 2.604-2.422 4.723-3.148 1.332-.505 2.916-.656 4.753-.454 1.836.181 3.269.645 4.299 1.392l-2.604 8.537c-1.493-.908-3.098-1.261-4.813-1.059-1.716.181-3.048.807-3.996 1.877-.989 1.11-1.635 2.381-1.938 3.814-.282 1.413-.424 4.087-.424 8.023v9.929l-9.294-.06Z" fill="#000"/><path fill-rule="evenodd" clip-rule="evenodd" d="M14 0C6.26801 0 0 6.26802 0 14v58c0 7.732 6.26802 14 14 14h250c7.732 0 14-6.268 14-14V14c0-7.73199-6.268-14-14-14H14Zm232.093 17-9.355.0605.061 16.3477c-2.785-2.1999-6.014-3.0677-9.688-2.6035-3.834.4642-6.983 2.0485-9.445 4.7529-2.462 2.7044-3.835 6.1657-4.117 10.3838-.202 2.8457.121 5.4896.969 7.9316.847 2.4421 2.018 4.4099 3.511 5.9034 1.514 1.4935 3.169 2.6438 4.965 3.4511 1.796.8275 3.582 1.2413 5.359 1.2413 3.733.0201 6.629-1.0899 8.688-3.3301l.242 2.3008 8.931.0605-.121-46.5Zm-11.08 24.6426c1.271 1.4531 1.907 3.4007 1.907 5.8428 0 2.4016-.606 4.3291-1.816 5.7822-1.191 1.4531-2.836 2.22-4.935 2.3008-2.038.0807-3.774-.656-5.207-2.21-1.413-1.554-2.119-3.4814-2.119-5.7822 0-2.321.686-4.2787 2.058-5.8731 1.373-1.5944 3.048-2.3714 5.026-2.331 2.139.0403 3.834.7972 5.086 2.2705Zm-184.1839.5752 8.3252-3.3907c-.9889-3.0273-3.0576-5.318-6.2061-6.872-3.1484-1.5742-6.1253-2.1999-8.9306-1.877-3.3503.4037-6.1354 1.6651-8.3555 3.7842-2.1999 2.099-3.2998 4.5309-3.2998 7.2959 0 1.7962.7165 3.5218 2.1494 5.1768 1.4531 1.6347 3.2796 2.8053 5.4795 3.5117.4844.1614 1.766.4339 3.8447.8174 2.099.3632 3.6934.7972 4.7832 1.3017 1.1101.4844 1.6247 1.1605 1.544 2.0283-.0807.7871-.7367 1.3825-1.9678 1.7862-1.2109.3834-2.4824.4339-3.8144.1513-1.1101-.2421-2.1394-.8173-3.0879-1.7255-.9284-.9284-1.5339-1.9476-1.8164-3.0577L31 54.8721c1.0293 3.0273 2.8558 5.3886 5.4795 7.084 2.6237 1.6751 5.7116 2.5127 9.2637 2.5127 3.8951 0 7.1748-.989 9.8388-2.9668 2.6641-1.9779 3.9961-4.3897 3.9961-7.2354 0-5.3685-3.0778-8.8197-9.2334-10.3535-.6256-.1817-1.4531-.3734-2.4824-.5752-2.4824-.5853-4.1475-1.0495-4.9951-1.3926-.8477-.3431-1.2715-.8678-1.2715-1.5742 0-.5046.3835-.9385 1.1504-1.3018.7669-.3834 1.6852-.5752 2.7549-.5752 1.2513 0 2.4118.3734 3.4814 1.1202 1.0697.7467 1.6852 1.6145 1.8467 2.6035Zm18.1943-6.9024c-3.108 3.0677-4.6621 7.1042-4.6621 12.1094 0 4.8034 1.6045 8.7793 4.8135 11.9277 3.2292 3.1283 7.306 4.6924 12.2305 4.6924 4.0162 0 7.3665-1.0091 10.0508-3.0273 2.6842-2.0183 4.4199-4.208 5.207-6.5694l-8.749-2.7246c-1.433 3.0476-3.7842 4.4502-7.0537 4.208-1.7357-.0807-3.2494-.6559-4.5411-1.7255-1.2916-1.0697-2.0384-2.3109-2.2402-3.7237l23.0078-.2724c.5449-5.9942-.6256-10.7471-3.5117-14.2588-2.8659-3.5117-6.9629-5.2676-12.291-5.2676-5.0456 0-9.1325 1.5439-12.2608 4.6318Zm11.0801 3.1787c1.8164-.1211 3.4209.2624 4.8135 1.1504 1.3926.8881 2.1898 2.0183 2.3916 3.3907l-13.1387.0605c.3229-1.2513 1.0394-2.3109 2.1494-3.1787 1.1101-.8678 2.3715-1.3421 3.7842-1.4229Zm38.0845 1.1807c-1.938.2018-3.563 1.0394-4.875 2.5127-1.291 1.4733-1.917 3.1585-1.876 5.0557.04 2.3209.686 4.2282 1.937 5.7216 1.272 1.4734 2.937 2.2907 4.995 2.4522 1.615.1211 3.098-.2927 4.45-1.2412 1.373-.9486 2.251-2.1797 2.634-3.6934l9.294 2.6641c-1.15 3.6732-3.259 6.5693-6.327 8.6885-3.068 2.0989-6.559 3.0677-10.475 2.9062-4.702-.1614-8.557-1.887-11.564-5.1767-3.007-3.2898-4.511-7.417-4.511-12.3819 0-4.4603 1.655-8.3857 4.965-11.7764 3.31-3.3906 7.134-5.1061 11.474-5.1464 3.976-.0404 7.376.9788 10.202 3.0576 2.825 2.0586 4.803 4.9648 5.933 8.7187l-8.93 2.4219c-1.736-3.5117-4.178-5.1061-7.326-4.7832Zm24.521-4.208c-3.27 3.2695-4.904 7.2353-4.904 11.8975 0 4.763 1.655 8.8196 4.965 12.1699 3.309 3.3502 7.295 5.0254 11.958 5.0254 4.662 0 8.638-1.6752 11.927-5.0254 3.29-3.3503 4.935-7.4069 4.935-12.1699 0-4.6622-1.635-8.628-4.904-11.8975-3.27-3.2695-7.256-4.9043-11.958-4.9043-4.743 0-8.749 1.6348-12.019 4.9043Zm6.69 17.8613c-1.453-1.5742-2.179-3.542-2.179-5.9033 0-2.2806.736-4.1979 2.21-5.7519 1.473-1.5743 3.259-2.3614 5.358-2.3614 2.059 0 3.825.7871 5.298 2.3614 1.473 1.554 2.21 3.4713 2.21 5.7519 0 2.4017-.706 4.3796-2.119 5.9336-1.393 1.554-3.189 2.3311-5.389 2.3311-2.139 0-3.935-.7872-5.389-2.3614ZM177.463 63.5V31.6826h9.173v3.1787c1.937-2.3209 4.339-3.6731 7.205-4.0566 2.846-.3229 5.378.0303 7.598 1.0596 2.241 1.0293 3.875 2.6237 4.905 4.7832.948 1.9375 1.423 5.3079 1.423 10.1113V63.5h-9.597V46.3652c0-2.6438-.404-4.4603-1.211-5.4492-.807-.9889-2.281-1.4834-4.42-1.4834-1.534 0-2.836.777-3.905 2.3311-1.05 1.554-1.574 3.4814-1.574 5.7822V63.5h-9.597Z" fill="#000"/></svg>