<svg width="1593" height="1839" viewBox="0 0 1593 1839" fill="none" xmlns="http://www.w3.org/2000/svg">
<path d="M147.696 1342.54C144.223 1306.72 140.186 1270.51 137.153 1234.37C134.42 1201.4 133.611 1168.09 138.303 1135.08C146.033 1080.97 165.911 1031.2 193.19 984.12C224.28 930.431 268.012 889.667 321.314 858.394C360.262 835.799 400.797 816.646 441.739 798.413C478.319 782.173 515.837 768.496 553.231 754.097C575.772 745.49 598.073 736.924 621.354 731.161C638.903 726.637 656.453 722.114 674.868 721.157C693.565 720.399 711.831 721.449 729.959 725.992C734.381 727.209 739.044 728.384 743.466 729.601C773.689 736.757 801.336 749.067 827.484 765.6C840.579 773.986 853.235 782.697 864.498 793.382C866.88 795.695 869.461 797.726 871.644 800.321C885.433 817.01 899.901 833.335 911.932 851.319C920.966 864.868 928.158 879.231 932.631 895.055C940.137 921.255 947.362 947.256 950.821 974.404C954.248 1002.8 954.705 1031.21 952.715 1059.79C950.314 1093.16 946.867 1126.21 943.942 1159.41C941.661 1186.32 939.422 1213.46 940.434 1240.78C940.933 1256.55 942.195 1272.44 944.378 1287.91C947.519 1308.92 951.861 1329.73 956.005 1350.81C960.94 1376.46 964.672 1402.33 964.274 1428.65C963.407 1489.5 942.146 1542.73 902.781 1588.68C876.007 1620.07 843.123 1643.35 805.424 1660.28C762.002 1679.93 716.611 1692.49 669.563 1696.92C632.544 1700.6 595.415 1699.35 558.539 1693.84C498.244 1684.7 438.769 1671.7 380.782 1653C354.805 1644.61 329.896 1633.81 306.297 1620.55C255.753 1591.89 218.897 1550.7 193.333 1498.89C170.9 1453.72 156.479 1406.18 150.027 1356.01C149.518 1351.64 148.487 1347.11 147.696 1342.54Z" fill="#C761AA"/>
<mask id="mask0_46_2" style="mask-type:alpha" maskUnits="userSpaceOnUse" x="134" y="720" width="831" height="980">
<path d="M147.696 1342.54C144.223 1306.72 140.186 1270.51 137.153 1234.37C134.42 1201.4 133.611 1168.09 138.303 1135.08C146.033 1080.97 165.911 1031.2 193.19 984.12C224.28 930.431 268.012 889.667 321.314 858.394C360.262 835.799 400.797 816.646 441.739 798.413C478.319 782.173 515.837 768.496 553.231 754.097C575.772 745.49 598.073 736.924 621.354 731.161C638.903 726.637 656.453 722.114 674.868 721.157C693.565 720.399 711.831 721.45 729.959 725.992C734.381 727.209 739.044 728.384 743.466 729.601C773.689 736.757 801.336 749.067 827.484 765.6C840.579 773.986 853.235 782.697 864.498 793.382C866.88 795.695 869.461 797.726 871.644 800.321C885.433 817.01 899.901 833.335 911.932 851.319C920.966 864.868 928.158 879.231 932.631 895.055C940.137 921.255 947.362 947.256 950.821 974.404C954.248 1002.8 954.705 1031.21 952.715 1059.79C950.314 1093.16 946.867 1126.21 943.942 1159.41C941.661 1186.32 939.422 1213.46 940.434 1240.78C940.933 1256.55 942.195 1272.44 944.378 1287.91C947.519 1308.92 951.861 1329.73 956.005 1350.81C960.94 1376.46 964.672 1402.33 964.274 1428.65C963.407 1489.5 942.146 1542.73 902.781 1588.68C876.007 1620.07 843.123 1643.35 805.424 1660.28C762.002 1679.93 716.611 1692.49 669.563 1696.92C632.544 1700.6 595.415 1699.35 558.539 1693.84C498.245 1684.7 438.769 1671.7 380.782 1653C354.805 1644.61 329.896 1633.81 306.297 1620.55C255.753 1591.89 218.897 1550.7 193.333 1498.89C170.9 1453.72 156.479 1406.18 150.027 1356.01C149.518 1351.64 148.487 1347.11 147.696 1342.54Z" fill="black"/>
</mask>
<g mask="url(#mask0_46_2)">
</g>
<g style="mix-blend-mode:darken">
<path d="M930.26 624.813C920.935 659.268 911.994 694.291 902.147 728.892C893.131 760.448 882.214 791.639 866.292 820.637C840.162 868.14 804.279 907.36 762.467 941.498C714.805 980.43 659.939 1002.94 599.517 1013.29C555.455 1020.61 511.127 1024.18 466.744 1026.76C427.107 1029.01 387.497 1028.56 347.75 1028.82C323.815 1028.91 300.119 1029.05 276.494 1026.24C258.623 1024.29 240.752 1022.34 223.327 1016.78C205.71 1010.93 189.126 1003.56 173.895 992.989C170.217 990.311 166.302 987.587 162.625 984.908C137.083 967.678 115.739 946.568 97.2649 922.064C88.0508 909.693 79.3578 897.176 72.6491 883.314C71.2487 880.333 69.5649 877.544 68.448 874.37C61.4991 854.051 53.7911 833.833 48.9273 812.927C45.2908 797.189 43.648 781.34 45.0415 765.088C47.2542 738.143 49.6591 711.483 55.9602 685.077C62.7273 657.528 72.2567 631.002 84.1186 605.17C98.0368 575.048 112.815 545.584 127.163 515.792C138.705 491.624 150.293 467.219 158.927 441.508C163.988 426.699 168.382 411.516 171.779 396.387C176.225 375.79 179.483 354.964 183.024 333.945C187.432 308.409 193.029 283.101 202.624 258.806C224.745 202.644 263.124 160.697 315.756 131.841C351.6 112.092 390.274 102.009 431.191 99.5066C478.373 96.4807 524.899 100.726 570.11 113.102C605.755 122.656 639.773 136.829 672.063 154.862C724.817 184.466 775.46 217.363 822.72 255.035C843.889 271.92 863.221 290.671 880.477 311.243C917.341 355.549 937.114 406.685 942.686 463.725C947.679 513.503 944.405 562.681 932.816 611.496C931.757 615.731 931.127 620.295 930.26 624.813Z" fill="#78D676"/>
<mask id="mask1_46_2" style="mask-type:alpha" maskUnits="userSpaceOnUse" x="44" y="98" width="901" height="931">
<path d="M930.26 624.813C920.935 659.268 911.994 694.291 902.147 728.892C893.131 760.448 882.214 791.639 866.292 820.637C840.162 868.14 804.279 907.36 762.467 941.498C714.805 980.43 659.939 1002.94 599.517 1013.29C555.455 1020.61 511.127 1024.18 466.744 1026.76C427.107 1029.01 387.497 1028.56 347.75 1028.82C323.815 1028.91 300.119 1029.05 276.494 1026.24C258.623 1024.29 240.752 1022.34 223.327 1016.78C205.71 1010.93 189.126 1003.56 173.895 992.989C170.217 990.311 166.302 987.587 162.625 984.908C137.083 967.678 115.739 946.568 97.2649 922.064C88.0508 909.693 79.3578 897.176 72.6491 883.314C71.2487 880.333 69.5649 877.544 68.448 874.37C61.4991 854.051 53.7911 833.833 48.9273 812.927C45.2908 797.189 43.648 781.34 45.0415 765.088C47.2542 738.143 49.6591 711.483 55.9602 685.077C62.7273 657.528 72.2567 631.002 84.1186 605.17C98.0368 575.048 112.815 545.584 127.163 515.792C138.705 491.624 150.293 467.219 158.927 441.508C163.988 426.699 168.382 411.516 171.779 396.387C176.225 375.79 179.483 354.964 183.024 333.945C187.432 308.409 193.029 283.101 202.624 258.806C224.745 202.644 263.124 160.697 315.756 131.841C351.6 112.092 390.274 102.009 431.191 99.5066C478.373 96.4807 524.899 100.726 570.11 113.102C605.755 122.656 639.773 136.829 672.063 154.862C724.817 184.466 775.46 217.363 822.72 255.035C843.889 271.92 863.221 290.671 880.477 311.243C917.341 355.549 937.114 406.685 942.686 463.725C947.679 513.503 944.405 562.681 932.816 611.496C931.757 615.731 931.127 620.295 930.26 624.813Z" fill="black"/>
</mask>
<g mask="url(#mask1_46_2)">
</g>
</g>
<path d="M1547.07 611.026C1503.87 983.53 1290.94 1056.99 1178.75 1043.98C1066.56 1030.97 1127.78 676.105 1140.79 563.915C1153.8 451.724 1255.3 371.322 1367.49 384.331C1479.68 397.341 1560.08 498.835 1547.07 611.026Z" fill="#F4C9F8"/>
</svg>
