<svg width="282" height="33" fill="none" xmlns="http://www.w3.org/2000/svg"><path d="M0 18.9363c0-1.1081.898282-2.0064 2.00637-2.0064h4.68152c1.10809 0 2.00637.8983 2.00637 2.0064v11.3694c0 1.1081-.89828 2.0064-2.00637 2.0064H2.00637C.898282 32.3121 0 31.4138 0 30.3057V18.9363ZM26.3057 13.8089c0-1.1081.8983-2.0064 2.0064-2.0064h4.6815c1.1081 0 2.0064.8983 2.0064 2.0064v16.4968c0 1.1081-.8983 2.0064-2.0064 2.0064h-4.6815c-1.1081 0-2.0064-.8983-2.0064-2.0064V13.8089ZM13.1528 6.00637C13.1528 4.89828 14.0511 4 15.1592 4h4.6815c1.1081 0 2.0064.89828 2.0064 2.00637V30.3057c0 1.1081-.8983 2.0064-2.0064 2.0064h-4.6815c-1.1081 0-2.0064-.8983-2.0064-2.0064V6.00637Z" fill="#545CFF"/><path d="M51.0547 21.2178c.3965 1.5176 1.0527 2.7343 1.9687 3.6504.9297.9023 1.9551 1.4355 3.0762 1.5996 1.3672.2187 2.6045.041 3.7119-.5332 1.1074-.5742 1.7295-1.4903 1.8662-2.7481.1641-1.3672-.4101-2.4951-1.7226-3.3838-1.3125-.9023-3.5205-1.873-6.624-2.9121-1.9825-.6426-3.5889-1.7568-4.8194-3.3427-1.2168-1.586-1.7705-3.3018-1.6611-5.14751.082-1.76367.7383-3.39062 1.9687-4.88086 1.2442-1.50391 2.9121-2.49512 5.0039-2.973632C54.917.231445 56.0996.135742 57.3711.258789c1.2715.109375 2.4746.362305 3.6094.758791 1.1347.38281 2.2011 1.05957 3.1992 2.03027.998.9707 1.75 2.15332 2.2558 3.54785 0 0-1.6953.71778-5.0859 2.15332-.5058-1.39453-1.374-2.35156-2.6045-2.87109-1.2305-.5332-2.5771-.56055-4.04-.08203-1.791.58789-2.5293 1.79101-2.2149 3.60937.1914 1.09373 1.4493 2.07813 3.7735 2.95313 1.9824.7246 3.5615 1.3672 4.7373 1.9277 1.1758.5606 2.3037 1.2442 3.3838 2.0508 1.08.793 1.8662 1.7022 2.3584 2.7276.4922 1.0117.7519 2.2011.7793 3.5683.0546 2.6934-.9024 4.8535-2.8711 6.4805-1.9551 1.6269-4.3887 2.5224-7.3008 2.6865-2.8848.1367-5.4483-.5605-7.6904-2.0918-2.2286-1.5449-3.5547-3.6914-3.9786-6.4394l5.3731-2.0508ZM73.3377 6.88281c-.9844 0-1.8116-.32812-2.4815-.98437-.6699-.65625-1.0049-1.45606-1.0049-2.39942 0-.95703.335-1.76367 1.0049-2.41992.6699-.656248 1.4971-.9843734 2.4815-.9843734.957 0 1.7705.3281254 2.4404.9843734.6699.65625 1.0049 1.46289 1.0049 2.41992 0 .94336-.335 1.74317-1.0049 2.39942-.6699.65625-1.4834.98437-2.4404.98437Zm-2.8506 3.40429h5.8242v21h-5.8242v-21ZM94.9644.586914 100.46.545898l.082 30.659202-5.2495-.041-.2051-2.1739c-1.3398 1.9278-3.4111 2.8916-6.2138 2.8916-1.1758 0-2.3448-.2666-3.5069-.7998-1.1621-.5332-2.2353-1.2851-3.2197-2.2558-.9707-.9844-1.7295-2.2696-2.2764-3.8555-.5469-1.5859-.7519-3.3154-.6152-5.1885.1094-1.5996.458-3.0283 1.0459-4.2861.5879-1.2578 1.3057-2.2627 2.1533-3.0147.8613-.7519 1.7568-1.3398 2.6865-1.7636.9434-.4239 1.9209-.6905 2.9326-.79983 2.7754-.3418 5.086.43063 6.9317 2.31743L94.9644.586914Zm.123 20.200186c0-1.709-.458-3.1103-1.374-4.2041-.9023-1.1074-2.167-1.6748-3.7939-1.7021-1.4219-.0274-2.6456.5332-3.6709 1.6816-1.0254 1.1348-1.5381 2.5566-1.5381 4.2656 0 1.627.5195 3.0215 1.5586 4.1836 1.039 1.1621 2.3105 1.7158 3.8144 1.6612 1.791-.0821 3.0694-.711 3.835-1.8868.7793-1.1757 1.1689-2.5088 1.1689-3.999ZM103.343 20.7461c0-3.5273 1.073-6.2275 3.22-8.1006 2.16-1.873 4.771-2.80956 7.834-2.80956 3.103 0 5.667 1.02536 7.69 3.07616 2.037 2.0371 2.912 5.1406 2.625 9.3106l-15.668.164c0 .9844.438 1.9688 1.313 2.9531.888.9707 2.119 1.4971 3.691 1.5791 2.324.1641 4.006-.7587 5.045-2.7685l5.168 1.5996c-.615 1.5176-1.777 2.8711-3.486 4.0605-1.709 1.1895-3.808 1.7842-6.296 1.7842-3.309 0-5.995-1.039-8.06-3.1172-2.051-2.0781-3.076-4.6552-3.076-7.7314Zm15.586-2.5635c0-1.0664-.513-2.0097-1.538-2.8301-1.025-.8203-2.304-1.1757-3.835-1.0664-1.066.0547-2.058.4444-2.974 1.169-.902.7246-1.415 1.6474-1.538 2.7685l9.885-.041ZM126.856 1.22266h6.214V31.2871h-6.214V1.22266ZM136.835 31.2051V10.5127h5.373v2.9326c1.449-2.1055 3.226-3.2812 5.332-3.52733 2.051-.24609 3.76.00683 5.127.75883 1.367.7519 2.345 1.7294 2.932 2.9326.616 1.3125.923 3.541.923 6.6855v10.9102h-5.66V20.0283c0-1.8457-.308-3.1582-.923-3.9375-.615-.7793-1.722-1.1689-3.322-1.1689-1.039 0-1.989.5195-2.851 1.5586-.847 1.0254-1.271 2.4746-1.271 4.3476v10.377h-5.66ZM171.402 31.2051h-5.496l-8.88-20.7334 6.316-.0615 5.332 14.0888 5.414-14.0888 6.173.0615-8.859 20.7334ZM180.252 20.7461c0-3.5273 1.074-6.2275 3.22-8.1006 2.16-1.873 4.771-2.80956 7.834-2.80956 3.103 0 5.667 1.02536 7.69 3.07616 2.038 2.0371 2.913 5.1406 2.625 9.3106l-15.668.164c0 .9844.438 1.9688 1.313 2.9531.889.9707 2.119 1.4971 3.691 1.5791 2.325.1641 4.006-.7587 5.045-2.7685l5.168 1.5996c-.615 1.5176-1.777 2.8711-3.486 4.0605-1.709 1.1895-3.808 1.7842-6.296 1.7842-3.309 0-5.995-1.039-8.06-3.1172-2.05-2.0781-3.076-4.6552-3.076-7.7314Zm15.586-2.5635c0-1.0664-.512-2.0097-1.538-2.8301-1.025-.8203-2.304-1.1757-3.835-1.0664-1.066.0547-2.057.4444-2.973 1.169-.903.7246-1.416 1.6474-1.539 2.7685l9.885-.041ZM221.484 14.6553l-4.778 1.9892c-.314-.7793-.868-1.3672-1.661-1.7636-.793-.3965-1.538-.5948-2.235-.5948-.78 0-1.491.1573-2.133.4717-.629.3008-.944.7041-.944 1.21 0 .6972.534 1.2441 1.6 1.6406.342.1094 1.894.499 4.655 1.1689 3.952.9571 5.927 3.1582 5.927 6.6036 0 1.6269-.793 3.1171-2.379 4.4707-1.572 1.3535-3.76 2.0302-6.562 2.0302-2.543 0-4.594-.581-6.153-1.7431-1.558-1.1621-2.659-2.543-3.301-4.1426l4.962-2.1328c.247.6972.684 1.3398 1.313 1.9277.629.5879 1.354.9639 2.174 1.1279.93.1915 1.873.1436 2.83-.1435.957-.2871 1.483-.7998 1.579-1.5381.055-.5605-.198-1.0391-.759-1.4355-.56-.4102-1.196-.6973-1.907-.8614-.697-.1777-1.538-.3554-2.522-.5332-.971-.1777-1.641-.3213-2.01-.4306-1.34-.4239-2.489-1.1485-3.446-2.1739-.943-1.0254-1.415-2.1259-1.415-3.3017 0-1.6543.677-3.1787 2.031-4.5733 1.353-1.3945 3.178-2.23532 5.475-2.52243 1.791-.21875 3.671.14356 5.64 1.08693 1.982.9297 3.322 2.3174 4.019 4.1631ZM236.836 25.791l1.558 4.7988c-.082.0274-.287.1026-.615.2256-.314.1231-.519.2051-.615.2461-.096.041-.301.1094-.615.2051-.301.0957-.547.1572-.739.1846-.177.041-.43.082-.758.123-.315.041-.609.0547-.882.041-.26-.0136-.568-.0341-.923-.0615-.342-.0273-.711-.0889-1.108-.1846-1.736-.3418-3.035-1.1552-3.896-2.4404-.848-1.2851-1.271-2.625-1.271-4.0195V15.291h-3.61v-4.8193h2.277c.615 0 1.032-.1026 1.25-.3076.219-.21879.329-.58109.329-1.08695V4.2373h5.332v6.2344h4.922v4.8193h-4.963v6.1319c0 1.4492.041 2.4199.123 2.9121.095.4921.28.9091.553 1.2509.561.5059 1.176.752 1.846.7383.67-.0137 1.272-.1914 1.805-.5332ZM244.23 31.4102c-1.039 0-1.921-.3623-2.645-1.087-.725-.7246-1.087-1.6064-1.087-2.6455 0-1.0117.362-1.8798 1.087-2.6045.724-.7246 1.606-1.0869 2.645-1.0869 1.012 0 1.88.3623 2.605 1.0869.724.7247 1.086 1.5928 1.086 2.6045 0 1.0391-.362 1.9209-1.086 2.6455-.725.7247-1.593 1.087-2.605 1.087ZM253.511 6.88281c-.984 0-1.811-.32812-2.481-.98437-.67-.65625-1.005-1.45606-1.005-2.39942 0-.95703.335-1.76367 1.005-2.41992.67-.656248 1.497-.9843734 2.481-.9843734.957 0 1.771.3281254 2.441.9843734.669.65625 1.004 1.46289 1.004 2.41992 0 .94336-.335 1.74317-1.004 2.39942-.67.65625-1.484.98437-2.441.98437Zm-2.85 3.40429h5.824v21h-5.824v-21ZM262.464 28.6006c-2.133-2.2149-3.199-4.8467-3.199-7.8955 0-3.0489 1.059-5.6328 3.178-7.752 2.133-2.1328 4.758-3.19919 7.875-3.19919 3.077 0 5.674 1.06639 7.793 3.19919 2.133 2.1192 3.2 4.7031 3.2 7.752 0 3.0488-1.067 5.6806-3.2 7.8955-2.119 2.2148-4.716 3.3223-7.793 3.3223-3.103 0-5.721-1.1075-7.854-3.3223Zm2.338-7.8545c0 1.8184.547 3.2744 1.641 4.3682 1.093 1.0937 2.392 1.6406 3.896 1.6406 1.518 0 2.816-.5469 3.896-1.6406 1.081-1.0938 1.621-2.5498 1.621-4.3682 0-1.709-.547-3.1172-1.641-4.2246-1.094-1.1211-2.386-1.6817-3.876-1.6817-1.477 0-2.769.5606-3.876 1.6817-1.107 1.1074-1.661 2.5156-1.661 4.2246Z" fill="#000"/></svg>