<svg width="423" height="82" viewBox="0 0 423 82" fill="none" xmlns="http://www.w3.org/2000/svg">
<path fill-rule="evenodd" clip-rule="evenodd" d="M346.801 24.207C346.882 24.7112 346.963 25.2178 347.043 25.7231C351.342 25.0334 355.64 24.3437 359.939 23.654C359.846 23.3114 359.754 22.9677 359.662 22.625L346.801 24.207ZM56.3045 22.3077C56.2703 21.8154 56.2362 21.3255 56.2033 20.8345C47.6612 20.2328 39.1205 19.6323 30.5809 19.033C30.6074 19.5921 30.635 20.1523 30.6638 20.7115C39.2111 21.2439 47.7572 21.7752 56.3045 22.3077V22.3077ZM217.193 30.7836C208.389 30.1145 199.584 29.4466 190.78 28.7765L190.862 30.2173C194.122 30.49 197.382 30.8043 200.639 31.0212C204.06 31.2476 207.497 31.5234 210.891 31.4991C213.021 31.4851 215.089 30.9589 217.185 30.6614C222.881 30.7756 228.58 30.8899 234.278 31.0053C235.84 31.362 237.436 32.0139 238.962 32.0278C250.407 32.1351 261.868 32.3339 273.265 32.0757C284.553 31.8182 295.803 31.2305 307.006 30.443C312.532 30.0559 317.915 28.8911 323.363 28.0776C323.258 27.6589 323.154 27.2415 323.049 26.8228C313.921 27.6163 304.847 28.7665 295.652 29.1228C278.502 29.7839 261.277 29.9585 244.091 30.402C240.801 30.4868 237.552 30.8743 234.285 31.1228C228.588 31.0097 222.891 30.8966 217.193 30.7836V30.7836ZM316.704 63.8703C327.383 64.0401 338.068 64.2601 348.742 64.3682C361.399 64.4957 374.05 64.5556 386.695 64.5699C388.452 64.5716 390.257 64.3802 391.876 63.8802C398.185 61.926 401.983 66.4915 405.759 70.5944C407.975 73.0009 406.167 77.5918 402.783 77.9599C393.448 78.9745 384.117 80.2153 374.655 80.3928C345.3 80.9444 315.884 81.037 286.496 81.3306C283.975 81.3555 281.485 81.6651 278.961 81.6214C276.367 81.5784 273.011 82.7374 273.43 77.5436C273.543 76.1419 271.107 74.41 270.455 72.664C268.182 66.5824 268.786 64.1832 274.057 61.5619C281.08 58.0681 288.39 55.0613 295.602 51.896C300.866 49.586 306.112 47.231 311.474 45.1203C318.256 42.4517 325.275 40.2569 331.94 37.3729C335.871 35.671 339.311 33.0322 342.972 30.8152C342.956 30.3031 342.939 29.7887 342.922 29.2766C342.092 29.6263 341.308 30.2208 340.424 30.2834C329 31.0859 317.549 31.7617 306.124 32.5722C295.676 33.3128 285.325 34.7533 274.804 34.8742C252.053 35.1358 229.276 35.5766 206.411 34.4511C162.437 32.2887 118.39 29.0036 74.3813 26.3536C51.2943 24.9638 28.227 23.9356 5.14887 22.719C4.0363 22.6606 2.90882 22.3638 1.05756 22.0576C2.40142 20.8613 3.18963 20.1592 3.97674 19.4582C3.87749 19.1442 3.81144 18.642 3.69995 18.6182C1.1513 18.0968 0.323936 15.8098 1.02211 14.3909C1.83836 12.7284 3.7861 10.9701 5.59101 10.7543C11.497 10.0438 17.5442 9.87103 23.5722 9.76907C28.851 9.67837 34.1682 9.7904 39.4837 10.1156C53.0018 10.9441 66.4124 10.4115 79.9892 11.8554C83.7023 12.2504 87.4057 11.3513 91.1166 11.0647C92.1425 10.986 93.175 10.8833 94.2126 10.9478C116.854 12.335 139.494 13.6898 162.142 15.1748C172.394 15.8473 182.664 16.886 192.918 17.5807C200.037 18.0632 207.136 18.066 214.254 18.6655C216.391 18.8456 219.583 16.8785 220.824 21.1377C220.855 21.238 222.218 21.2471 222.863 21.0548C224.992 20.4162 227.149 19.7999 229.166 18.9311C233.1 17.2387 237.146 18.6312 241.282 19.3195C244.63 19.8754 248.025 19.2286 251.418 19.3606C254.855 19.4928 259.168 21.2611 261.558 19.9062C264.819 18.0578 268.011 19.707 271.096 19.0841C276.962 17.8972 282.968 17.1009 288.996 16.5202C296.927 15.7573 304.992 13.9949 312.891 15.2224C319.524 16.2518 325.111 14.2862 331.262 14.2551C339.385 14.2137 347.384 12.874 355.317 11.6464C361.117 10.7513 366.674 7.82891 372.438 8.2599C376.998 8.60182 380.079 6.20065 383.912 6.16796C391.79 6.10084 398.745 3.45268 405.856 1.4359C411.404 -0.1414 415.644 1.0281 419.108 5.7122C420.427 7.49676 424.696 7.9319 422.158 12.6372C420.346 15.9936 422.256 17.2106 418.465 18.8487C385.21 33.2066 351.943 47.5418 318.682 61.8901C317.931 62.213 317.218 62.6111 316.488 62.9747C316.56 63.272 316.631 63.5717 316.704 63.8703V63.8703Z" fill="#78D676"/>
</svg>
